<svg xmlns="http://www.w3.org/2000/svg" xmlns:xlink="http://www.w3.org/1999/xlink" version="1.1" x="0px" y="0px" viewBox="0 0 100 125" style="enable-background:new 0 0 100 100;" xml:space="preserve"><path d="M72.0632858,85.2973633c-0.5927734-2.4716797-2.3320313-4.3652344-4.5400391-4.9394531l-17.1816406-4.4746094  c-1.2514648-0.3261719-2.1259766-1.5439453-2.1259766-2.9609375v-5.1531372  c2.9267578-2.3635864,5.4128418-5.7412109,7.3106689-9.586792c0.1766357,0.0198364,0.3538208,0.0348511,0.5325928,0.0348511  c3.0092773,0,6.2260742-2.7509766,7.1118164-6.2246094c0.4204712-1.649292,0.2608643-3.3773193-0.4023438-4.7994995  c0.550293-1.8186646,0.8525391-3.744812,0.8525391-5.7415161v-2.0693359  c-0.0048218-0.3461914-0.0253296-0.6741333-0.0396118-1.0092163c0.5656738,0.1939087,1.1697998,0.3041382,1.800354,0.3041382  c3.0732422,0,5.5742188-2.5009766,5.5742188-5.5742188c0-3.0737305-2.5009766-5.5742188-5.5742188-5.5742188  c-1.4942627,0-2.8502197,0.5942993-3.8522339,1.5550537c-0.6896362-1.6130371-1.5061646-3.0942993-2.4354858-4.4329224  c0.0473633-0.013916,0.0959473-0.0177002,0.1431885-0.0327759c1.6811523-0.5341797,3.0634766-1.722168,3.8925781-3.3452148  c1.7041016-3.3364258,0.5087891-7.5209961-2.6630859-9.328125c-0.3486328-0.1987305-0.7148438-0.3637695-1.0942383-0.4931641  c-0.3193359-2.4907227-2.3671875-4.4179688-4.8378906-4.4179688c-1.1083984,0-2.1806641,0.4038086-3.0419922,1.1289063  c-1.394043-0.6855469-2.9614258-0.8183594-4.4526367-0.3730469c-1.675293,0.5004883-3.0498047,1.6621094-3.871582,3.2705078  c-0.1186523,0.2324219-0.2246094,0.4760742-0.3173828,0.7285156c-1.6088867,0.3071289-2.9848633,1.34375-3.7636719,2.8691406  c-0.2504883,0.4904785-0.3982544,1.0057983-0.4992676,1.5258789h-3.1312256  c-0.4350586-2.5681152-2.7973022-4.3919067-5.4158955-4.0996094c-1.2241211,0.1376953-2.3491211,0.7373047-3.1557617,1.6542969  c-0.984375-0.4760742-2.0854492-0.6694336-3.1826172-0.5454102c-2.4775391,0.277832-4.453125,2.0527344-5.0224609,4.4204102  c-2.8447256,0.7705078-4.74121,3.4902344-4.4042959,6.4931641c0.0344238,0.3070679,0.107666,0.5993652,0.1854248,0.8891602  c-1.7305908,0.6959839-2.99823,2.3376465-3.1043701,4.3193359c-0.1240845,2.3161011,1.3792114,4.3366699,3.5038452,4.9854126  c-0.2966309,1.5689087-0.4550171,3.2478027-0.480896,5.0956421v2.0556641c0,1.996582,0.3021851,3.9225464,0.852356,5.7410889  c-0.6637573,1.4220581-0.8231812,3.151062-0.4026489,4.7999268c0.8857422,3.4736328,4.1025381,6.2246094,7.1118155,6.2246094  c0.178894,0,0.3564453-0.0150146,0.5333252-0.0348511c1.8978271,3.8455811,4.383728,7.2231445,7.3104248,9.586731v5.1531982  c0,1.4169922-0.8745117,2.6347656-2.1259766,2.9609375l-17.1821289,4.4746094  C8.2698278,80.9321289,6.53057,82.824707,5.9373083,85.2973633l-1.5415039,6.4355469  c-0.0712891,0.2978516-0.0019531,0.6123047,0.1875,0.8525391s0.4790039,0.3808594,0.7851563,0.3808594h67.2631836  c0.3066406,0,0.5957031-0.140625,0.7851563-0.3808594s0.2587891-0.5546875,0.1875-0.8515625L72.0632858,85.2973633z   M61.2332077,51.4985352c-0.6240234,2.4448853-2.7870483,4.4855347-4.796936,4.6987305  c1.3277588-3.1268921,2.2764893-6.4833374,2.7714233-9.8130493c0.7033691,0.2296143,1.1763916,0.7029419,1.4508057,1.1084595  C61.3728561,48.550293,61.593071,50.0844727,61.2332077,51.4985352z M65.3816452,29.5288086  c1.9707031,0,3.5742188,1.6035156,3.5742188,3.5742188s-1.6035156,3.5742188-3.5742188,3.5742188  s-3.5742188-1.6035156-3.5742188-3.5742188S63.4109421,29.5288086,65.3816452,29.5288086z M40.8684616,15.5673828  c0.5634766-1.1035156,1.6098633-1.8017578,2.7988281-1.8681641c0.4331055-0.0244141,0.8012695-0.3251953,0.9116211-0.7446289  c0.0927734-0.3535156,0.2172852-0.6850586,0.3706055-0.9848633c0.5703125-1.1171875,1.5161133-1.9213867,2.6630859-2.2636719  c1.0893555-0.3256836,2.2373047-0.1914063,3.234375,0.3774414c0.0546875,0.0307617,0.1049805,0.0664063,0.15625,0.1015625  c0.003418,0.0019531,0.0888672,0.0600586,0.0922852,0.0620117c0.4223633,0.28125,0.9902344,0.2006836,1.3173828-0.1870117  c0.5595703-0.6621094,1.3129883-1.0263672,2.121582-1.0263672c1.5888672,0,2.8813477,1.3901367,2.8862305,3.0102539  c-0.0053711,0.0395508-0.012207,0.1230469-0.0131836,0.1625977c-0.0073242,0.4794922,0.3261719,0.8969727,0.7954102,0.9951172  c0.4501953,0.09375,0.878418,0.2553711,1.2734375,0.4804688c0,0,0,0,0,0.0004883  c2.2573242,1.2856445,3.0966797,4.2827148,1.8720703,6.6806641c-0.5839844,1.1435547-1.5488281,1.9775391-2.7167969,2.3491211  c-1.1108398,0.3530273-2.2949219,0.2480469-3.3349609-0.2983398c-0.4169922-0.2182617-0.9326172-0.1152344-1.234375,0.2480469  c-1.3457031,1.625-3.5366211,2.046875-5.3271484,1.0263672c-0.9516602-0.5419922-1.6796875-1.4414063-2.0498047-2.5336914  c-0.0932617-0.2744141-0.3012695-0.4951172-0.5698242-0.6049805c-0.1210938-0.0493164-0.2495117-0.0737305-0.3774414-0.0737305  c-0.1557617,0-0.3110352,0.0361328-0.453125,0.1083984c-0.9814453,0.4995117-2.0874023,0.4760742-3.0332031-0.0629883  C40.5798874,19.5698242,39.9597702,17.347168,40.8684616,15.5673828z M19.6907253,19.4423828  c0.4492188-0.0654297,0.7978516-0.4257813,0.8486328-0.8774414c0.2021484-1.7915039,1.5942383-3.1835938,3.3857422-3.3847656  c0.1420898-0.015625,0.2836914-0.0234375,0.4248047-0.0234375c0.7949219,0,1.5742188,0.2485352,2.2319336,0.71875  c0.2314453,0.1650391,0.5209961,0.2246094,0.796875,0.1630859c0.2763672-0.0610352,0.5146484-0.2363281,0.6542969-0.4829102  c0.4755859-0.8374023,1.2885742-1.378418,2.230957-1.484375c1.6240234-0.1748047,3.0815449,0.987793,3.2636738,2.6054688  c0.1142578,1.0219727-0.3100586,2.0141602-1.1357422,2.6538086c-0.3398438,0.2631836-0.4736347,0.7138672-0.3320313,1.1196289  c0.0991211,0.2836914,0.1645508,0.5673828,0.1958008,0.8432617c0.1142578,1.0200195-0.175293,2.0229492-0.8154316,2.8251953  c-0.6401367,0.8017578-1.5541992,1.3066406-2.5737305,1.4208984c-1.1679688,0.1318359-2.3120117-0.2719727-3.1450195-1.1054688  c-0.2421875-0.2416992-0.590332-0.3442383-0.9248047-0.269043c-0.3339844,0.0742188-0.6069336,0.3144531-0.7231445,0.6357422  c-0.5266113,1.4570313-1.8042603,2.4692383-3.3352661,2.6450806c-0.7598877-1.5728149-2.3101196-2.708313-4.1740112-2.8081665  c-0.0466919-0.0026245-0.0906372,0.0074463-0.137085,0.0061646c-0.0766602-0.2438354-0.1345825-0.4968872-0.1641846-0.7600708  C16.0193386,21.7104492,17.525198,19.7597656,19.6907253,19.4423828z M14.1047888,31.5512695  c-0.5263672-0.5864258-0.7929688-1.3422852-0.7509766-2.1289063c0.0419922-0.7871094,0.3881836-1.5102539,0.9741211-2.0366211  c0.5458984-0.4902344,1.2392578-0.7553711,1.9677725-0.7553711c0.0537109,0,0.1074219,0.0014648,0.1611328,0.0043945  c0.7871094,0.0419922,1.5102539,0.3881836,2.0366211,0.9741211c0.5263672,0.5864258,0.7929688,1.3422852,0.7509766,2.1289063  c-0.0419922,0.7871094-0.3881836,1.5102539-0.9741211,2.0366211s-1.3442383,0.7978516-2.1289063,0.7509766  C15.3543005,32.4833984,14.631156,32.137207,14.1047888,31.5512695z M16.3796902,39.409668  c0.0252686-1.7997437,0.1895142-3.4237061,0.4897461-4.9352417c2.3493042-0.2741699,4.2414551-2.1895752,4.3720703-4.6292114  c0.0083008-0.1552124-0.015625-0.3034058-0.0215454-0.4557495c1.7297974-0.2724609,3.2237549-1.2549438,4.1426392-2.7014771  c1.1025391,0.6860352,2.4106445,0.9887695,3.7265625,0.8388672c1.5507813-0.1738281,2.9409199-0.940918,3.9140644-2.1606445  c0.9736328-1.2192383,1.4140625-2.7451172,1.2397461-4.2954102c-0.0229492-0.206543-0.0585938-0.4145508-0.1054688-0.6225586  c0.6245728-0.6375122,1.0535889-1.4188843,1.2622681-2.2646484h3.1430054  c0.2543335,1.6704712,1.1982422,3.2097778,2.71875,4.0756836c1.2070313,0.6889648,2.6196289,0.8535156,3.9355469,0.4931641  c0.5830078,1.1264648,1.4638672,2.0566406,2.5478516,2.6743164c0.949707,0.5405273,1.9907227,0.8017578,3.0253906,0.8012695  c1.5639648,0,3.112793-0.5961914,4.3032227-1.7246094c0.5457764,0.2081299,1.1129761,0.3180542,1.6846313,0.3696899  c1.3898926,1.7729492,2.5490723,3.862854,3.4237061,6.2376709c-0.2382813,0.6196899-0.3744507,1.2896729-0.3744507,1.9922485  c0,1.5623169,0.6483765,2.9746094,1.6876831,3.987793c0.065979,0.7418213,0.1144409,1.5018311,0.1257935,2.3051758v2.0556641  c0,1.2952271-0.1466675,2.555481-0.4095459,3.7728271c-0.531189-0.4105835-1.131897-0.6960449-1.784729-0.8447266  c0.1558228-2.1689453-0.1656494-4.2944946-0.9810181-6.1741943c-0.0004883,0-0.0161133-0.0351563-0.0161133-0.0361328  c-2.2285156-5.1025391-6.7421875-8.2724609-11.7802734-8.2724609H31.3508816c-5.0380859,0-9.5517578,3.1699219-11.796875,8.3105469  c-0.8145142,1.8789673-1.1359863,4.0045776-0.9800415,6.1721802c-0.652771,0.1486816-1.253418,0.434082-1.784729,0.8447876  c-0.2628784-1.2173462-0.4095459-2.4776001-0.4095459-3.7728271V39.409668z M16.7673855,51.4985352  c-0.3603516-1.4130859-0.1401367-2.9482422,0.5742188-4.0058594c0.2744751-0.4056396,0.7477417-0.8791504,1.451416-1.1086426  c0.4949341,3.3292236,1.4434814,6.6853027,2.7709961,9.8118286C19.5497341,55.9807129,17.3911648,53.9449463,16.7673855,51.4985352z   M20.5857449,44.6733398c-0.215332-2,0.0620117-3.9609375,0.8178711-5.703125  c1.9052734-4.362793,5.7167969-7.0732422,9.9472656-7.0732422h15.2983418c4.2304688,0,8.0419922,2.7104492,9.9555664,7.0908203  c0.0009766,0.0029297,0.0039063,0.0097656,0.0073242,0.0166016c0.7407227,1.7089844,1.0180664,3.6699219,0.8027344,5.6699219  c-1.2768555,11.84375-8.6801758,24.6269531-18.4145508,24.6269531  C29.2654324,69.3012695,21.862112,56.5180664,20.5857449,44.6733398z M6.6360388,90.9663086l1.246582-5.2021484  c0.4199219-1.7529297,1.6074219-3.0830078,3.0981445-3.4707031l17.1821289-4.4746094  c2.1328125-0.5556641,3.6220703-2.5693359,3.6220703-4.8964844v-3.7491455  c2.2192402,1.3482056,4.6412373,2.1280518,7.2153339,2.1280518s4.9960938-0.7797852,7.215332-2.1279907v3.7490845  c0,2.3271484,1.4892578,4.3408203,3.6220703,4.8964844l17.1816406,4.4746094  c1.4912109,0.3876953,2.6787109,1.7177734,3.0986328,3.4697266l1.2460938,5.203125H6.6360388z M37.0784225,55.3823242  c-0.1381836-0.2744141-0.3051758-0.8388672,0.125-1.5371094c0.8759766-1.4208984,1.737793-4.8125,1.746582-4.8466797  c0.1010742-0.4013672,0.5083008-0.6455078,0.9106445-0.5439453c0.4013672,0.1015625,0.6450195,0.5087891,0.543457,0.9111328  c-0.0371094,0.1484375-0.9267578,3.6494141-1.9238281,5.2666016c-0.0488281,0.0791016-0.0537109,0.1171875-0.0537109,0.1171875  c0.121582,0.1943359,1.0981445,0.5019531,1.9628906,0.5791016c0.4125977,0.0371094,0.7172852,0.4003906,0.6806641,0.8134766  c-0.0341797,0.3896484-0.3613281,0.6835938-0.7456055,0.6835938c-0.0219727,0-0.0439453-0.0009766-0.0664063-0.0029297  C39.655571,56.7700195,37.6453171,56.5102539,37.0784225,55.3823242z M26.5173855,41.4746094  c-0.8623047,0.156189-1.7250977,0.4370117-2.454834,0.9776001c-0.0002441,0.0001831-0.0004883,0.0002441-0.0007324,0.0004272  c0.6188965-0.668457,1.454834-1.1318359,2.3217773-1.4594727c0.8735352-0.3271484,1.7998047-0.5209961,2.7414551-0.6083984  c0.942627-0.0800781,1.907959-0.0561523,2.8764668,0.125c0.9650879,0.1894531,1.9482422,0.5053711,2.8637695,1.206543  l0.0224609,0.0170898c0.4416504,0.3383789,0.5253906,0.9702148,0.1872559,1.4116211  c-0.3378906,0.4414063-0.9699707,0.5253906-1.411377,0.1870117c-0.0549316-0.0419922-0.107666-0.0927734-0.1513672-0.1425781  c-0.2324829-0.2705688-0.5474854-0.5177612-0.9040527-0.7366943c-0.31073-0.1907349-0.6522846-0.3605957-1.0083027-0.4981689  c-0.7714844-0.2998047-1.6137695-0.4838867-2.473877-0.5698242C28.2646999,41.3056641,27.3840847,41.3227539,26.5173855,41.4746094z   M43.0681686,43.2963867c-0.4216309-0.3623047-0.4697266-0.9980469-0.1071777-1.4199219  c0.0449219-0.0522461,0.0942383-0.0991211,0.1469727-0.1396484l0.0268555-0.0205078  c0.9155273-0.7011719,1.8986816-1.0170898,2.8637695-1.206543c0.9685059-0.1811523,1.934082-0.2050781,2.8764648-0.125  c0.9416504,0.0874023,1.8679199,0.28125,2.7414551,0.6083984c0.8671875,0.3276367,1.703125,0.7910156,2.3217773,1.4594727  c-0.0001221-0.0001221-0.0003052-0.0001221-0.0004272-0.0002441c-0.7299805-0.5407715-1.5927734-0.8215332-2.454895-0.9777832  c-0.8669434-0.1518555-1.7475586-0.1689453-2.6088867-0.0898438c-0.8601074,0.0859375-1.7023926,0.2700195-2.4736328,0.5698242  c-0.3561401,0.1375732-0.6977539,0.3074341-1.0084839,0.4981689c-0.3566284,0.2189331-0.6716309,0.4661255-0.9041138,0.7366943  C44.1252975,43.6108398,43.4897995,43.6586914,43.0681686,43.2963867z M33.2291183,48.0958252  c0.0095215,0.0025635,0.0239258,0.0106201,0.0324097,0.012085c0.2724609-0.0498047,0.5317383,0.1279297,0.5820313,0.4003906  c0.0507813,0.2714844-0.1298828,0.5322266-0.4013672,0.5830078c-0.0595703,0.0117188-0.1196289,0.0166016-0.1796875,0.0166016  c-0.5176392,0-1.0256958-0.388855-1.3280659-0.6724243c-0.1831665,0.0290527-0.3660889,0.0523682-0.5463257,0.0715942  c0.1819458,0.0476685,0.321167,0.2053833,0.3519287,0.4104004c0.0405273,0.2724609-0.1704102,0.5253906-0.4438477,0.5654297  c-0.0488281,0.0078125-0.097168,0.0117188-0.1435547,0.0117188c-0.5535889,0-0.9070435-0.4960327-1.1071777-0.9073486  c-0.0889282,0.0014038-0.1705933,0.0020752-0.2399902,0.0020752s-0.151062-0.0006714-0.2399902-0.0020752  c-0.2001343,0.4113159-0.5535889,0.9073486-1.1071777,0.9073486c-0.0463867,0-0.0942383-0.0039063-0.1435547-0.0117188  c-0.2734375-0.0400391-0.4614258-0.2949219-0.4208984-0.5683594c0.0299683-0.1992188,0.177002-0.3516846,0.3586426-0.4041138  c-0.1894531-0.0197754-0.3825684-0.0443726-0.5756226-0.0748901c-0.3024902,0.2835693-0.810791,0.6723633-1.3284302,0.6723633  c-0.0600586,0-0.1201172-0.0048828-0.1796875-0.0166016c-0.2714844-0.0507813-0.4506836-0.3115234-0.3999023-0.5830078  c0.0512695-0.2705078,0.3144531-0.4472656,0.5834961-0.3994141c0.0098267,0.0007324,0.0261841-0.008606,0.0373535-0.0098877  c-0.5516968-0.227478-0.9436035-0.5571289-0.9436035-1.0418701c0-0.3310547,0.2685547-0.5996094,0.6000977-0.5996094  c0.2744141,0,0.5053711,0.1835938,0.5771484,0.4345703c0.2792969,0.1904297,1.3925781,0.4980469,3.1821289,0.4980469  s2.9028339-0.3076172,3.1821308-0.4980469c0.0717773-0.2509766,0.3027344-0.4345703,0.5771484-0.4345703  c0.331543,0,0.6000977,0.2685547,0.6000977,0.5996094C34.1648483,47.5395508,33.7766647,47.8684692,33.2291183,48.0958252z   M52.5540085,47.0571289c0,0.4821777-0.3878174,0.8110352-0.9349365,1.0383911  c0.0090332,0.0026855,0.0238647,0.0109253,0.0316162,0.0123901c0.2705078-0.0498047,0.53125,0.1279297,0.5820313,0.4003906  c0.0507813,0.2714844-0.1298828,0.5322266-0.4013672,0.5830078c-0.0595703,0.0117188-0.1196289,0.0166016-0.1796875,0.0166016  c-0.5176392,0-1.0256958-0.388855-1.328064-0.6724243c-0.1830444,0.0289917-0.3658447,0.0523071-0.5458984,0.0715332  c0.1820679,0.0475464,0.3203735,0.2053833,0.3515015,0.4104614c0.0405273,0.2724609-0.1704102,0.5253906-0.4438477,0.5654297  c-0.0488281,0.0078125-0.097168,0.0117188-0.1435547,0.0117188c-0.5535889,0-0.9070435-0.4960327-1.1071777-0.9073486  c-0.0889282,0.0014038-0.1705933,0.0020752-0.2399902,0.0020752s-0.151062-0.0006714-0.2399902-0.0020752  c-0.2001343,0.4113159-0.5535889,0.9073486-1.1071777,0.9073486c-0.0463867,0-0.0942383-0.0039063-0.1435547-0.0117188  c-0.2734375-0.0400391-0.4614258-0.2949219-0.4208984-0.5683594c0.0299683-0.1992188,0.1771851-0.3516846,0.3587646-0.4041138  c-0.1896973-0.0197144-0.3828735-0.0443115-0.5761108-0.0749512c-0.3023682,0.2835693-0.8104248,0.6724243-1.328064,0.6724243  c-0.0600586,0-0.1201172-0.0048828-0.1796875-0.0166016c-0.2714844-0.0507813-0.4506836-0.3115234-0.3999023-0.5830078  c0.0517578-0.2705078,0.3125-0.4472656,0.5834961-0.3994141c0.0087891,0.0007935,0.0258179-0.0088501,0.036377-0.0102539  c-0.5512085-0.227478-0.942627-0.5570679-0.942627-1.0415039c0-0.3310547,0.2685547-0.5996094,0.6000977-0.5996094  c0.2744141,0,0.5053711,0.1835938,0.5771484,0.4345703c0.2792969,0.1904297,1.3925781,0.4980469,3.1821289,0.4980469  s2.902832-0.3076172,3.1821289-0.4980469c0.0717773-0.2509766,0.3027344-0.4345703,0.5771484-0.4345703  C52.2854538,46.4575195,52.5540085,46.7260742,52.5540085,47.0571289z M42.7908859,61.598877  c1.1096802-0.1787109,1.1161499-0.46875,1.1161499-0.7858887c0-0.3310547-0.2685547-0.5996094-0.6000977-0.5996094  c-0.1479492,0-0.2832031,0.0527344-0.3876953,0.1416016c-0.0714111,0.0181274-0.1881714,0.0374146-0.3262329,0.0566406  c-0.057373-0.1888428-0.1555176-0.3625488-0.3251343-0.4726563l-1.355957-0.8837891  c-0.1381836-0.0898438-0.2993164-0.1376953-0.4643555-0.1376953c-0.5585938,0-1.0629883,0.1552734-1.4472656,0.4150391  c-0.3847656-0.2597656-0.8891602-0.4150391-1.4477539-0.4150391c-0.1650391,0-0.3261719,0.0478516-0.4643555,0.1376953  l-1.355957,0.8837891c-0.1696167,0.1101074-0.2677612,0.2838745-0.3251343,0.4726563  c-0.1380615-0.0192261-0.2548218-0.0385132-0.3262329-0.0566406c-0.1044922-0.0888672-0.2397461-0.1416016-0.3876953-0.1416016  c-0.331543,0-0.6000977,0.2685547-0.6000977,0.5996094c0,0.3171387,0.0064697,0.6071167,1.1161499,0.7858276  c0.0688477,1.2624512,2.0627441,2.2337036,3.7910767,2.2337036S42.7220383,62.8613281,42.7908859,61.598877z M37.2856369,61.2258911  c0-0.0513306,0.0432129-0.1099854,0.1126099-0.1704102c0.1680908-0.0274658,0.3647461-0.0820923,0.5791016-0.1761475  c0.1426392-0.0626221,0.2697144-0.1328125,0.3845825-0.2051392c0.1975098-0.0361938,0.4121704-0.05896,0.6381836-0.05896  c0.2259521,0,0.4405518,0.0227661,0.6381836,0.05896c0.1148071,0.0723267,0.2418823,0.1425171,0.3845215,0.2051392  c0.2143555,0.0940552,0.4108887,0.1486816,0.5791016,0.1761475c0.069458,0.0604248,0.1126099,0.1190796,0.1126099,0.1704102  c0,0.2301025-0.7676392,0.1486206-1.7144165,0.1486206C38.053154,61.3745117,37.2856369,61.4559937,37.2856369,61.2258911z   M37.0574265,84.8286133c0.1962891,0.3652344,0.059082,0.8203125-0.3056641,1.0166016  c-0.112793,0.0605469-0.234375,0.0888672-0.3544922,0.0888672c-0.2670898,0-0.5258789-0.1435547-0.6611328-0.3945313  c-0.5854492-1.0898438-1.6708984-1.8115234-2.902832-1.9287109l-12.302248-1.171875  c-0.4121094-0.0400391-0.7148438-0.40625-0.675293-0.8183594c0.0390625-0.4121094,0.4013672-0.7099609,0.8178711-0.6757813  l12.302248,1.171875C34.7083054,82.2827148,36.2341843,83.2963867,37.0574265,84.8286133z M58.1443405,81.6206055  c0.0395508,0.4121094-0.2631836,0.7783203-0.675293,0.8183594l-12.3022461,1.171875  c-1.2319336,0.1171875-2.3173828,0.8388672-2.902832,1.9287109c-0.1352539,0.2509766-0.394043,0.3945313-0.6611328,0.3945313  c-0.1201172,0-0.2416992-0.0283203-0.3544922-0.0888672c-0.3647461-0.1962891-0.5019531-0.6513672-0.3056641-1.0166016  c0.8232422-1.53125,2.3491211-2.5458984,4.081543-2.7119141l12.3022461-1.171875  C57.7385788,80.9077148,58.1047897,81.2084961,58.1443405,81.6206055z M90.7312546,64.5490723V62.574707  c0-1.1025391-0.8974609-2-2-2h-0.25v-2.1884766h0.328125c0.5527344,0,1-0.4472656,1-1V53.237793c0-1.1025391-0.8974609-2-2-2  h-3.4648438c-0.6009521,0-1.1346436,0.2722168-1.5016479,0.6933594h-4.552063c-1.1025391,0-2,0.8974609-2,2v0.7626953  c0,1.1025391,0.8974609,2,2,2h4.0537109v0.6923828c0,0.5527344,0.4472656,1,1,1h0.3291016v2.1884766h-0.25  c-1.1025391,0-2,0.8974609-2,2v1.9743652c-2.8092041,0.6983643-4.9003906,3.2349854-4.9003906,6.2570801v20.1601563  c0,1.1025391,0.8974609,2,2,2h15.1083984c1.1025391,0,2-0.8974609,2-2V70.8061523  C95.6316452,67.7840576,93.5404587,65.2474365,90.7312546,64.5490723z M82.3445358,54.6938477h-4.0537109v-0.7626953h4.0537109  V54.6938477z M84.3445358,53.237793h3.4648438v3.1484375h-3.4648438V53.237793z M86.4812546,58.3862305v2.1884766h-0.8076172  v-2.1884766H86.4812546z M83.4236374,62.574707h5.3076172l0.0006104,1.7773438h-5.3082275V62.574707z M78.5232468,90.9663086  V70.8061523c0-2.4560547,1.9980469-4.4541016,4.4541016-4.4541016h6.2001953c2.4560547,0,4.4541016,1.9980469,4.4541016,4.4541016  l0.0009766,20.1601563H78.5232468z M91.518364,73.0649414H80.636528c-0.5527344,0-1,0.4472656-1,1v9.1875  c0,0.5527344,0.4472656,1,1,1H91.518364c0.5527344,0,1-0.4472656,1-1v-9.1875  C92.518364,73.512207,92.0710983,73.0649414,91.518364,73.0649414z M90.518364,82.2524414H81.636528v-7.1875h8.8818359V82.2524414z   M58.7786179,63.8969727c-2.2290039-0.8867188-4.8027344-0.0800781-6.105957,2.0185547  c-1.4589844,2.3515625-0.7338867,5.4521484,1.6166992,6.9130859c1.2539063,0.7773438,2.7426758,0.9570313,4.1074219,0.5371094  c0.3818359,0.9365234,1.050293,1.7363281,1.9331055,2.2851563c0.7797852,0.484375,1.6601563,0.7333984,2.5556641,0.7333984  c0.3710938,0,0.7460938-0.0429688,1.1162109-0.1298828c1.2646484-0.2958984,2.3388672-1.0664063,3.0234375-2.1699219  c0.0722656-0.1171875,0.140625-0.2382813,0.203125-0.3632813c1.1865234-0.1845703,2.2294922-0.8652344,2.8730469-1.9013672  c1.2070313-1.9453125,0.6074219-4.5107422-1.3378906-5.71875c-0.8349609-0.5185547-1.8271484-0.7128906-2.7871094-0.5732422  c-0.3994141-0.7597656-0.9941406-1.4033203-1.7314453-1.8603516C62.5164108,62.5932617,60.3616257,62.7104492,58.7786179,63.8969727  z M64.9480515,67.6186523c0.2548828,0.1230469,0.5488281,0.1318359,0.8125,0.0263672  c0.6523438-0.265625,1.3623047-0.2089844,1.9482422,0.1552734c1.0078125,0.6259766,1.3193359,1.9560547,0.6933594,2.9648438  c-0.3925781,0.6318359-1.0761719,1.0068359-1.8320313,1.0068359c-0.0087891,0-0.0185547,0-0.0244141,0  c-0.4267578,0-0.8066406,0.2705078-0.9453125,0.6748047c-0.0722656,0.2099609-0.1650391,0.40625-0.2744141,0.5830078  c-0.4033203,0.6494141-1.0351563,1.1035156-1.7792969,1.2773438c-0.7470703,0.1728516-1.5126953,0.0478516-2.1616211-0.3554688  c-0.7426758-0.4609375-1.2275391-1.2255859-1.3305664-2.0966797c-0.0405273-0.3398438-0.2514648-0.6357422-0.5595703-0.7841797  c-0.1376953-0.0654297-0.2856445-0.0986328-0.4335938-0.0986328c-0.1835938,0-0.3671875,0.0507813-0.527832,0.1503906  c-0.9868164,0.6132813-2.2075195,0.6162109-3.1889648,0.0068359c-1.4140625-0.8789063-1.8505859-2.7441406-0.9726563-4.1591797  c0.8618164-1.3886719,2.6489258-1.8359375,4.0668945-1.0205078c0.3930664,0.2246094,0.890625,0.1591797,1.2099609-0.1640625  c0.9433594-0.9560547,2.4008789-1.1289063,3.5415039-0.4189453c0.5966797,0.3701172,1.0351563,0.9492188,1.2333984,1.6308594  C64.502739,67.269043,64.6931686,67.4946289,64.9480515,67.6186523z M64.6316452,31.0664063c0-0.4140625,0.3359375-0.75,0.75-0.75  c1.5361328,0,2.7861328,1.25,2.7861328,2.7866211c0,0.4140625-0.3359375,0.75-0.75,0.75s-0.75-0.3359375-0.75-0.75  c0-0.7094727-0.5771484-1.2866211-1.2861328-1.2866211C64.9675827,31.8164063,64.6316452,31.4804688,64.6316452,31.0664063z   M67.4080124,40.8676758c-2.03125,1.8242188-2.1992188,4.9599609-0.375,6.9902344  c0.8828125,0.984375,2.0966797,1.5644531,3.4169922,1.6357422c0.0908203,0.0048828,0.1806641,0.0068359,0.2705078,0.0068359  c1.2226563,0,2.3857422-0.4443359,3.3017578-1.2675781c2.03125-1.8242188,2.1992188-4.9599609,0.375-6.9912109  C72.5720749,39.2124023,69.4363327,39.0444336,67.4080124,40.8676758z M72.6863327,46.7446289  c-0.5859375,0.5273438-1.3457031,0.796875-2.1289063,0.7519531c-0.7871094-0.0429688-1.5097656-0.3886719-2.0361328-0.9746094  c-0.5273438-0.5869141-0.7939453-1.3427734-0.7519531-2.1298828c0.0429688-0.7861328,0.3886719-1.5097656,0.9746094-2.0361328  c0.5625-0.5048828,1.2666016-0.7539063,1.9697266-0.7539063c0.8085938,0,1.6142578,0.3300781,2.1953125,0.9765625  c0.5273438,0.5869141,0.7939453,1.3427734,0.7519531,2.1298828C73.6179733,45.4946289,73.2722702,46.2182617,72.6863327,46.7446289z   M72.5818405,42.8745117c0.9228516,1.0283203,0.8378906,2.6171875-0.1894531,3.5419922  c-0.1435547,0.1289063-0.3232422,0.1923828-0.5019531,0.1923828c-0.2050781,0-0.4091797-0.0839844-0.5576172-0.2480469  c-0.2773438-0.3085938-0.2519531-0.7822266,0.0556641-1.0595703c0.4140625-0.3720703,0.4482422-1.0107422,0.0761719-1.4248047  c-0.2763672-0.3085938-0.2509766-0.7822266,0.0576172-1.0595703C71.830864,42.5415039,72.3044968,42.5649414,72.5818405,42.8745117z   M17.1423855,27.8642578c-0.0219727,0.4135742-0.3666992,0.7216797-0.7890625,0.7089844  c-0.2675781-0.0102539-0.5278311,0.0766602-0.7280264,0.2568359c-0.2006836,0.1796875-0.3188477,0.4267578-0.3330078,0.6958008  c-0.0214844,0.3999023-0.3525391,0.7099609-0.7485352,0.7099609c-0.0131836,0-0.0268555-0.0004883-0.0405273-0.0009766  c-0.4135742-0.0219727-0.730957-0.3754883-0.7089844-0.7890625C13.8679724,28.0654297,15.049613,27,16.4334011,27.0751953  C16.8469753,27.097168,17.1643581,27.4506836,17.1423855,27.8642578z M13.9656286,71.1723633  c0.2617188,0,0.5302734-0.0214844,0.8110352-0.0644531c0.6572266,0.6132813,1.5126944,0.9550781,2.4267569,0.9550781  c1.9760742,0,3.5839844-1.6074219,3.5839844-3.5839844c0-0.9111328-0.3564453-1.7880859-0.9760742-2.4472656  c0.0371094-0.2617188,0.0556641-0.5136719,0.0556641-0.7607422c0-3.2539063-2.6474609-5.9003906-5.9013662-5.9003906  s-5.9008789,2.6464844-5.9008789,5.9003906S10.7117224,71.1723633,13.9656286,71.1723633z M13.9656286,61.3706055  c2.1513662,0,3.9013662,1.75,3.9013662,3.9003906c0,0.2734375-0.0380859,0.5673828-0.1162109,0.8974609  c-0.0927734,0.3916016,0.0581055,0.7998047,0.3828125,1.0371094c0.4155273,0.3046875,0.6538086,0.7685547,0.6538086,1.2734375  c0,0.8730469-0.7104492,1.5839844-1.5839844,1.5839844c-0.4985352,0-0.9599609-0.2353516-1.2651358-0.6445313  c-0.1914063-0.2568359-0.4907227-0.4023438-0.8017578-0.4023438c-0.0795898,0-0.159668,0.0097656-0.2387695,0.0292969  c-0.3530273,0.0869141-0.6489258,0.1269531-0.9321289,0.1269531c-2.1508789,0-3.9008789-1.75-3.9008789-3.9013672  C10.0647497,63.1206055,11.8147497,61.3706055,13.9656286,61.3706055z M13.3386755,67.8432617  c-0.1391602,0.2402344-0.3911133,0.3740234-0.6494141,0.3740234c-0.1279297,0-0.2573242-0.0322266-0.3754883-0.1015625  c-0.2841797-0.1640625-0.5424805-0.3710938-0.7675781-0.6162109c-0.2802734-0.3037109-0.2612305-0.7783203,0.043457-1.0595703  c0.3046875-0.2792969,0.7797852-0.2607422,1.0600586,0.0439453c0.1225586,0.1328125,0.2626953,0.2451172,0.4160156,0.3349609  C13.4241247,67.0258789,13.546195,67.4848633,13.3386755,67.8432617z M11.4260778,66.0209961c-0.4140625,0-0.75-0.3359375-0.75-0.75  c0-1.3613281,0.8178711-2.5625,2.0834961-3.0615234c0.3837891-0.1494141,0.8212891,0.0380859,0.9726563,0.4228516  c0.1518555,0.3857422-0.0375977,0.8212891-0.4228516,0.9736328c-0.6884766,0.2705078-1.1333008,0.9248047-1.1333008,1.6650391  C12.1760778,65.6850586,11.8401403,66.0209961,11.4260778,66.0209961z"/><text x="0" y="115" fill="#000000" font-size="5px" font-weight="bold" font-family="'Helvetica Neue', Helvetica, Arial-Unicode, Arial, Sans-serif">Created by Llisole</text><text x="0" y="120" fill="#000000" font-size="5px" font-weight="bold" font-family="'Helvetica Neue', Helvetica, Arial-Unicode, Arial, Sans-serif">from the Noun Project</text></svg>