<svg xmlns="http://www.w3.org/2000/svg" data-name="Layer 5" viewBox="0 0 512 640" x="0px" y="0px"><defs><style>
      .cls-1 {
        stroke-width: 0px;
      }
    </style></defs><path class="cls-1" d="m506.93,371.801c-14.451-20.863-40.236-30.585-64.58-25.051l39.42-39.013c1.257-1.244,1.901-2.979,1.76-4.743-.141-1.763-1.053-3.374-2.492-4.402-11.206-8.011-24.762-11.956-38.31-11.451l11.944-15.017c.831-1.044,1.285-2.344,1.298-3.672.043-2.088-1.101-4.132-2.897-5.196-7.867-4.584-16.483-7.211-25.167-8.024-4.876-9.639-14.637-15.987-25.58-16.414v-9.003c7.936-.283,7.93-11.719,0-11.999v-14.957c0-3.313-2.686-6-6-6h-14.194v-26.679c0-18.057-14.69-32.747-32.747-32.747-12.489,0-25.039,2.861-36.294,8.273-9.642,4.637-20.394,7.088-31.093,7.088h-38.426c-25.574,0-46.716,19.279-49.692,44.064h-12.01c-3.313,0-6,2.687-6,6v14.957c-7.936.283-7.93,11.719,0,11.999v8.987c-14.903.576-27.05,12.069-28.647,26.693-47.305,4.204-87.625,1.678-141.742,62.137-2.179,2.497-1.923,6.287.573,8.466,2.495,2.182,6.286,1.924,8.466-.571,50.063-56.184,86.949-54.047,132.457-57.962v42.342c-16.996-3.552-34.424-5.357-51.925-5.357-3.313,0-6,2.687-6,6s2.687,6,6,6c47.777-.127,95.01,14.42,134.515,41.156,5.475,3.695,10.794,7.614,15.937,11.746,1.563,1.25,3.725,1.648,5.627,1.024,0,0,51.595-16.913,51.595-16.913.881-.288,1.684-.777,2.344-1.429l81.994-80.853c.753-.733,1.518-1.445,2.311-2.129,14.066-12.243,34.035-15.549,51.211-8.67-11.461,14.189-78.478,98.918-91.496,115.108,0,0-99.457,46.484-99.457,46.484-3.002,1.403-4.298,4.974-2.895,7.976,1.408,3.032,5.042,4.286,7.976,2.895,0,0,100.734-47.081,100.734-47.081.84-.393,1.578-.975,2.155-1.7,0,0,74.194-93.282,74.194-93.282,12.086-3.33,25.034-1.956,36.088,3.71-35.558,35.191-133.793,132.411-170.66,168.898,0,0-53.032,0-53.032,0-14.427-5.179-148.239-53.214-158.313-56.83-7.536-2.428-11.457,8.338-4.055,11.295,0,0,13.286,4.769,13.286,4.769l-57.329,65.319c-3.419,3.779-.536,10.047,4.507,9.958,1.667,0,3.326-.69,4.512-2.042l60.452-68.877s133.869,48.056,133.869,48.056c.65.233,1.336.353,2.027.353,0,0,56.531,0,56.531,0,.663-.007,1.326-.112,1.953-.329.279-.089.543-.216.809-.338,0,0,31.25-16.107,31.25-16.107,0,0,162.007-14.375,162.007-14.375,1.72-.152,3.291-1.039,4.311-2.433,1.02-1.393,1.39-3.158,1.016-4.844-4.77-21.492-21.768-37.972-42.804-42.535l46.524-23.98c3.163-1.54,4.253-5.905,2.183-8.75ZM199.509,208.858h190.817v8.957h-28.096c-3.313,0-6,2.687-6,6s2.687,6,6,6h28.096v8.957h-202.456v-8.957h76.992c3.313,0,6-2.687,6-6s-2.687-6-6-6h-76.992v-8.957h11.638Zm-22.467,41.913h224.114c4.636,0,8.966,1.778,12.22,4.785-10.577,1.554-20.611,5.714-29.119,12.28-.434-.813-59.524,58.275-61.625,60.127v-37.087c0-9.925-8.075-18-18-18h-145.59v-4.104c0-9.926,8.075-18,18-18Zm73.419,117.296c-4.669-3.657-9.481-7.141-14.409-10.445h46.272l-31.864,10.445Zm236.818,74.975l-125.353,11.123,76.38-39.368,10.318.521c17.35.877,32.403,11.948,38.654,27.725Zm-155.552,13.188l91.411-90.467,16.47-5.768c18.905-6.624,39.83-1.163,53.133,13.243l-161.014,82.992Z"/><path class="cls-1" d="m289.099,229.814h48.199c7.929-.269,7.953-11.722,0-12,0,0-48.199,0-48.199,0-7.929.269-7.953,11.722,0,12Z"/><path class="cls-1" d="m288.321,124.341c26.673,0,48.373-21.7,48.373-48.373,0-25.155-39.607-65.618-44.123-70.149-2.235-2.33-6.264-2.335-8.499,0-4.516,4.531-44.124,44.994-44.124,70.149,0,26.673,21.7,48.373,48.373,48.373Z"/><path class="cls-1" d="m125.377,99.458c23.996,0,39.5,15.505,39.5,39.5,0,3.313,2.687,6,6,6s6-2.687,6-6c0-23.996,15.505-39.5,39.501-39.5,3.313,0,6-2.687,6-6s-2.687-6-6-6c-23.996,0-39.501-15.505-39.501-39.501,0-3.313-2.687-6-6-6s-6,2.687-6,6c0,23.996-15.505,39.501-39.5,39.501-7.916.263-7.964,11.719,0,12Z"/><path class="cls-1" d="m421.365,177.995c16.924,0,27.859,10.936,27.859,27.86.266,7.923,11.721,7.958,12,0,0-16.924,10.936-27.86,27.86-27.86,3.313,0,6-2.687,6-6s-2.687-6-6-6c-16.924,0-27.86-10.936-27.86-27.859,0-3.313-2.687-6-6-6s-6,2.687-6,6c0,16.924-10.936,27.859-27.859,27.859-7.923.266-7.958,11.721,0,12Z"/><path class="cls-1" d="m77.673,210.952c16.924,0,27.86,10.936,27.86,27.86.266,7.923,11.721,7.958,12,0,0-16.924,10.936-27.86,27.86-27.86,3.313,0,6-2.687,6-6s-2.687-6-6-6c-16.924,0-27.86-10.936-27.86-27.86,0-3.313-2.687-6-6-6s-6,2.687-6,6c0,16.924-10.936,27.86-27.86,27.86-7.923.266-7.958,11.721,0,12Z"/><text x="0" y="527" fill="#000000" font-size="5px" font-weight="bold" font-family="'Helvetica Neue', Helvetica, Arial-Unicode, Arial, Sans-serif">Created by Setitik pixel</text><text x="0" y="532" fill="#000000" font-size="5px" font-weight="bold" font-family="'Helvetica Neue', Helvetica, Arial-Unicode, Arial, Sans-serif">from the Noun Project</text></svg>